<?xml version="1.0" standalone="no"?><!DOCTYPE svg PUBLIC "-//W3C//DTD SVG 1.1//EN" "http://www.w3.org/Graphics/SVG/1.1/DTD/svg11.dtd"><svg t="1681629481650" class="icon" viewBox="0 0 1024 1024" version="1.1" xmlns="http://www.w3.org/2000/svg" p-id="832" xmlns:xlink="http://www.w3.org/1999/xlink" width="200" height="200"><path d="M102.4 384c0-17.92 14.336-32.256 32.256-32.256H808.96l-114.176-113.664c-12.8-12.8-12.8-33.28 0-46.08s33.28-12.8 46.08 0l169.984 169.472c1.536 1.536 2.56 2.56 3.584 4.096 1.536 2.56 3.072 5.12 4.096 7.68 1.024 3.584 2.048 7.168 2.048 10.752 0 8.704-3.584 16.896-9.728 22.528-3.072 3.072-6.656 5.12-10.24 6.656-4.096 1.536-8.192 2.56-12.8 2.56h-752.64c-17.92 0.512-32.768-13.824-32.768-31.744z m0 256c0-8.704 3.584-16.896 9.216-23.04 3.072-3.072 6.656-5.12 10.24-6.656 4.096-1.536 8.192-2.56 12.8-2.56h752.64c17.92-0.512 32.768 13.312 33.792 31.232 0.512 17.92-13.312 32.768-31.232 33.792h-675.84l114.176 114.176c12.8 12.8 12.8 33.28 0 45.568-12.8 12.8-33.28 12.8-46.08 0l-169.984-168.96c-1.536-1.536-2.56-2.56-3.584-4.096-1.536-2.56-3.072-5.12-4.096-7.68-1.024-4.608-2.048-8.192-2.048-11.776z" fill="#e6e6e6" p-id="833"></path></svg>